<svg xmlns="http://www.w3.org/2000/svg" viewBox="0 0 400 400">
  <rect width="400" height="400" fill="#f8f8f5"/>
  <rect x="40" y="30" width="320" height="340" rx="6" fill="#fff" stroke="#1d3557" stroke-width="2"/>
  <text x="60" y="70" fill="#1d3557" font-family="system-ui,sans-serif" font-size="20" font-weight="700">PubMed</text>
  <text x="60" y="95" fill="#777" font-family="system-ui,sans-serif" font-size="13">PMID: 6872626</text>
  <line x1="60" y1="110" x2="340" y2="110" stroke="#1d3557" stroke-width="1"/>
  <text x="60" y="140" fill="#222" font-family="Georgia,serif" font-size="15" font-weight="700">Abstract</text>
  <!-- fake text lines -->
  <g fill="#bbb">
    <rect x="60" y="160" width="280" height="6" rx="2"/>
    <rect x="60" y="175" width="270" height="6" rx="2"/>
    <rect x="60" y="190" width="285" height="6" rx="2"/>
    <rect x="60" y="205" width="220" height="6" rx="2"/>
    <rect x="60" y="225" width="280" height="6" rx="2"/>
    <rect x="60" y="240" width="260" height="6" rx="2"/>
    <rect x="60" y="255" width="275" height="6" rx="2"/>
    <rect x="60" y="270" width="180" height="6" rx="2"/>
  </g>
  <text x="60" y="320" fill="#1d3557" font-family="system-ui,sans-serif" font-size="13" font-weight="600"> Paper ·  Peer reviewed</text>
  <text x="60" y="350" fill="#1d9bf0" font-family="system-ui,sans-serif" font-size="11">pubmed.ncbi.nlm.nih.gov/6872626/</text>
</svg>
